<svg width="256" height="256" viewBox="0 0 100 100" xmlns="http://www.w3.org/2000/svg">
    <title>CoffeeCleaner Sweeping Bean Icon</title>
    
    <!-- Squircle Background -->
    <rect x="0" y="0" width="100" height="100" rx="25" ry="25" fill="#f0f0f0"/>

    <!-- Enlarged and Centered Bean -->
    <path d="M 35 25 C 15 40, 15 70, 40 85 C 65 70, 65 40, 45 25 C 42 26, 39 27, 35 25 Z" 
          fill="#44403C"/>
    <path d="M 40 30 C 50 45, 50 65, 43 80" 
          stroke="rgba(255, 255, 255, 0.3)" 
          stroke-width="3" 
          fill="none" 
          stroke-linecap="round"/>

    <!-- Steam/Dust particles - adjusted positions -->
    <rect x="70" y="30" width="5" height="5" fill="#44403C" opacity="0.2" transform="rotate(15 72.5 32.5)"/>
    <rect x="80" y="40" width="8" height="8" fill="#44403C" opacity="0.3" transform="rotate(-10 84 44)"/>
    <rect x="75" y="55" width="4" height="4" fill="#44403C" opacity="0.25" transform="rotate(5 77 57)"/>
    <rect x="65" y="70" width="6" height="6" fill="#44403C" opacity="0.15" transform="rotate(-20 68 73)"/>
</svg>